<?xml version="1.0" encoding="UTF-8"?>
<svg id="Layer_2" data-name="Layer 2" xmlns="http://www.w3.org/2000/svg" xmlns:xlink="http://www.w3.org/1999/xlink" viewBox="0 0 1324.89 1324.89">
  <defs>
    <style>
      .cls-1 {
        fill: url(#linear-gradient);
      }

      .cls-1, .cls-2 {
        stroke-width: 0px;
      }

      .cls-2 {
        fill: url(#linear-gradient-2);
      }
    </style>
    <linearGradient id="linear-gradient" x1="317.99" y1="1134.67" x2="1265.85" y2="-129.15" gradientTransform="translate(-159.29 -20.4) scale(1 .97) skewX(-15.28)" gradientUnits="userSpaceOnUse">
      <stop offset="0" stop-color="#f5c540"/>
      <stop offset="1" stop-color="#fe7e0b"/>
    </linearGradient>
    <linearGradient id="linear-gradient-2" x1="795.96" y1="1495.21" x2="1743.82" y2="231.39" xlink:href="#linear-gradient"/>
  </defs>
  <g id="Layer_1-2" data-name="Layer 1">
    <g>
      <polygon class="cls-1" points="593.33 911.79 661.8 664.78 458.33 664.78 350.06 455.9 574.13 247.02 1102.98 247.02 1171.45 0 520.67 0 164.11 332.39 68.47 332.39 35.14 452.62 31.62 455.9 33.32 459.18 0 579.41 95.65 579.41 267.94 911.79 593.33 911.79"/>
      <polygon class="cls-2" points="1291.57 865.72 1324.89 745.49 1229.25 745.49 1056.95 413.1 731.56 413.1 663.09 660.12 866.56 660.12 974.83 869 750.77 1077.88 221.91 1077.88 153.44 1324.89 804.22 1324.89 1160.78 992.51 1256.43 992.51 1289.75 872.28 1293.27 869 1291.57 865.72"/>
    </g>
  </g>
</svg>