<?xml version="1.0" encoding="UTF-8"?>
<svg id="Layer_2" data-name="Layer 2" xmlns="http://www.w3.org/2000/svg" xmlns:xlink="http://www.w3.org/1999/xlink" viewBox="0 0 1844.05 435.02">
  <defs>
    <style>
      .cls-1 {
        fill: #fc8e17;
      }

      .cls-1, .cls-2, .cls-3, .cls-4, .cls-5, .cls-6, .cls-7, .cls-8, .cls-9, .cls-10, .cls-11, .cls-12, .cls-13, .cls-14, .cls-15, .cls-16, .cls-17, .cls-18, .cls-19, .cls-20, .cls-21, .cls-22, .cls-23, .cls-24, .cls-25, .cls-26, .cls-27, .cls-28, .cls-29, .cls-30, .cls-31, .cls-32, .cls-33, .cls-34, .cls-35, .cls-36, .cls-37, .cls-38, .cls-39, .cls-40, .cls-41, .cls-42, .cls-43, .cls-44, .cls-45, .cls-46, .cls-47, .cls-48, .cls-49, .cls-50, .cls-51, .cls-52, .cls-53, .cls-54, .cls-55, .cls-56, .cls-57, .cls-58, .cls-59, .cls-60, .cls-61, .cls-62, .cls-63, .cls-64, .cls-65, .cls-66, .cls-67, .cls-68, .cls-69 {
        stroke-width: 0px;
      }

      .cls-2 {
        fill: #fc8f18;
      }

      .cls-3 {
        fill: #f5c33e;
      }

      .cls-4 {
        fill: #fa9e23;
      }

      .cls-5 {
        fill: #f6c13d;
      }

      .cls-6 {
        fill: #f8af2f;
      }

      .cls-7 {
        fill: #faa226;
      }

      .cls-8 {
        fill: #fd8813;
      }

      .cls-9 {
        fill: #f8ae2f;
      }

      .cls-10 {
        fill: #f9a729;
      }

      .cls-11 {
        fill: #fb991f;
      }

      .cls-12 {
        fill: #f6bb38;
      }

      .cls-13 {
        fill: #f7b332;
      }

      .cls-14 {
        fill: #fb931b;
      }

      .cls-15 {
        fill: #f8aa2c;
      }

      .cls-16 {
        fill: #f6ba38;
      }

      .cls-17 {
        fill: #f7b735;
      }

      .cls-18 {
        fill: #f9a629;
      }

      .cls-19 {
        fill: #fa9b21;
      }

      .cls-20 {
        fill: #f9a92b;
      }

      .cls-21 {
        fill: #fb971e;
      }

      .cls-22 {
        fill: #fd8510;
      }

      .cls-23 {
        fill: #fd8913;
      }

      .cls-24 {
        fill: #f8ad2e;
      }

      .cls-25 {
        fill: #f9a427;
      }

      .cls-26 {
        fill: #f5c43f;
      }

      .cls-27 {
        fill: #f7b836;
      }

      .cls-28 {
        fill: #f5c23e;
      }

      .cls-29 {
        fill: #f7b937;
      }

      .cls-30 {
        fill: none;
      }

      .cls-31 {
        fill: #f7b635;
      }

      .cls-32 {
        fill: #fb961d;
      }

      .cls-33 {
        fill: #f8ab2c;
      }

      .cls-34 {
        fill: #f9a326;
      }

      .cls-35 {
        fill: #faa025;
      }

      .cls-70 {
        clip-path: url(#clippath-1);
      }

      .cls-36 {
        fill: #fe810d;
      }

      .cls-37 {
        fill: #fc8a14;
      }

      .cls-38 {
        fill: #f6bf3b;
      }

      .cls-39 {
        fill: #fa9a20;
      }

      .cls-40 {
        fill: #fff;
      }

      .cls-41 {
        fill: #f8b030;
      }

      .cls-42 {
        fill: #f6bd3a;
      }

      .cls-43 {
        fill: #fa9c22;
      }

      .cls-44 {
        fill: #fc8b15;
      }

      .cls-45 {
        fill: #f9a82a;
      }

      .cls-46 {
        fill: #f8b131;
      }

      .cls-47 {
        fill: #fd8712;
      }

      .cls-48 {
        fill: #fc9019;
      }

      .cls-71 {
        clip-path: url(#clippath);
      }

      .cls-49 {
        fill: #fb921a;
      }

      .cls-50 {
        fill: #f6be3b;
      }

      .cls-51 {
        fill: #fb981f;
      }

      .cls-52 {
        fill: #fd8410;
      }

      .cls-53 {
        fill: #f6c03c;
      }

      .cls-54 {
        fill: #fc8c16;
      }

      .cls-55 {
        fill: #f6bc39;
      }

      .cls-56 {
        fill: #fa9f24;
      }

      .cls-57 {
        fill: #fd8611;
      }

      .cls-58 {
        fill: #f7b534;
      }

      .cls-59 {
        fill: #fb951c;
      }

      .cls-60 {
        fill: #f8ac2d;
      }

      .cls-61 {
        fill: #fd820e;
      }

      .cls-62 {
        fill: #fb941c;
      }

      .cls-63 {
        fill: #fc8d16;
      }

      .cls-64 {
        fill: #fc9119;
      }

      .cls-65 {
        fill: #f7b433;
      }

      .cls-66 {
        fill: #fa9d22;
      }

      .cls-67 {
        fill: #f9a528;
      }

      .cls-68 {
        fill: #f7b232;
      }

      .cls-69 {
        fill: #fd830f;
      }
    </style>
    <clipPath id="clippath">
      <polygon class="cls-30" points="198.3 299.38 221.19 218.28 153.18 218.28 117 149.69 191.89 81.11 368.64 81.11 391.52 0 174.02 0 54.85 109.14 22.88 109.14 11.75 148.61 10.57 149.69 11.14 150.77 0 190.24 31.97 190.24 89.55 299.38 198.3 299.38"/>
    </clipPath>
    <clipPath id="clippath-1">
      <polygon class="cls-30" points="431.67 284.25 442.81 244.78 410.84 244.78 353.25 135.64 244.5 135.64 221.62 216.75 289.62 216.75 325.81 285.33 250.92 353.91 74.17 353.91 51.28 435.02 268.79 435.02 387.96 325.88 419.92 325.88 431.06 286.41 432.24 285.33 431.67 284.25"/>
    </clipPath>
  </defs>
  <g id="Layer_1-2" data-name="Layer 1">
    <g>
      <g>
        <g class="cls-71">
          <polygon class="cls-42" points="0 298.66 .79 299.38 0 299.38 0 298.66"/>
          <polygon class="cls-55" points="0 287.44 13.07 299.38 .79 299.38 0 298.66 0 287.44"/>
          <polygon class="cls-12" points="0 276.22 25.35 299.38 13.07 299.38 0 287.44 0 276.22"/>
          <polygon class="cls-16" points="0 265 37.63 299.38 25.35 299.38 0 276.22 0 265"/>
          <polygon class="cls-29" points="0 253.78 49.91 299.38 37.63 299.38 0 265 0 253.78"/>
          <polygon class="cls-27" points="0 242.57 62.19 299.38 49.91 299.38 0 253.78 0 242.57"/>
          <polygon class="cls-17" points="0 231.35 74.47 299.38 62.19 299.38 0 242.57 0 231.35"/>
          <polygon class="cls-31" points="0 220.13 86.75 299.38 74.47 299.38 0 231.35 0 220.13"/>
          <polygon class="cls-58" points="0 208.91 99.03 299.38 86.75 299.38 0 220.13 0 208.91"/>
          <polygon class="cls-65" points="0 197.69 111.31 299.38 99.03 299.38 0 208.91 0 197.69"/>
          <polygon class="cls-13" points="0 186.47 123.59 299.38 111.31 299.38 0 197.69 0 186.47"/>
          <polygon class="cls-68" points="0 175.25 135.87 299.38 123.59 299.38 0 186.47 0 175.25"/>
          <polygon class="cls-46" points="0 164.03 148.15 299.38 135.87 299.38 0 175.25 0 164.03"/>
          <polygon class="cls-41" points="0 152.81 160.43 299.38 148.15 299.38 0 164.03 0 152.81"/>
          <polygon class="cls-6" points="0 141.59 172.71 299.38 160.43 299.38 0 152.81 0 141.59"/>
          <polygon class="cls-9" points="0 130.37 184.99 299.38 172.71 299.38 0 141.59 0 130.37"/>
          <polygon class="cls-24" points="0 127.34 4.4 123.18 197.27 299.38 184.99 299.38 0 130.37 0 127.34"/>
          <polygon class="cls-60" points="4.4 123.18 10.43 117.47 205.68 295.85 201.95 299.38 197.27 299.38 4.4 123.18"/>
          <polygon class="cls-33" points="10.43 117.47 16.46 111.76 211.71 290.14 205.68 295.85 10.43 117.47"/>
          <polygon class="cls-15" points="16.46 111.76 22.5 106.05 217.75 284.44 211.71 290.14 16.46 111.76"/>
          <polygon class="cls-20" points="22.5 106.05 28.53 100.34 223.78 278.73 217.75 284.44 22.5 106.05"/>
          <polygon class="cls-45" points="28.53 100.34 34.56 94.63 229.81 273.02 223.78 278.73 28.53 100.34"/>
          <polygon class="cls-10" points="34.56 94.63 40.59 88.92 235.84 267.31 229.81 273.02 34.56 94.63"/>
          <polygon class="cls-18" points="40.59 88.92 46.62 83.22 241.87 261.6 235.84 267.31 40.59 88.92"/>
          <polygon class="cls-67" points="46.62 83.22 52.65 77.51 247.9 255.89 241.87 261.6 46.62 83.22"/>
          <polygon class="cls-25" points="52.65 77.51 58.68 71.8 253.93 250.18 247.9 255.89 52.65 77.51"/>
          <polygon class="cls-34" points="58.68 71.8 64.72 66.09 259.97 244.47 253.93 250.18 58.68 71.8"/>
          <polygon class="cls-7" points="64.72 66.09 70.75 60.38 266 238.77 259.97 244.47 64.72 66.09"/>
          <polygon class="cls-35" points="70.75 60.38 76.78 54.67 272.03 233.06 266 238.77 70.75 60.38"/>
          <polygon class="cls-56" points="76.78 54.67 82.81 48.96 278.06 227.35 272.03 233.06 76.78 54.67"/>
          <polygon class="cls-4" points="82.81 48.96 88.84 43.26 284.09 221.64 278.06 227.35 82.81 48.96"/>
          <polygon class="cls-66" points="88.84 43.26 94.87 37.55 290.12 215.93 284.09 221.64 88.84 43.26"/>
          <polygon class="cls-43" points="94.87 37.55 100.9 31.84 296.15 210.22 290.12 215.93 94.87 37.55"/>
          <polygon class="cls-19" points="100.9 31.84 106.93 26.13 302.19 204.51 296.15 210.22 100.9 31.84"/>
          <polygon class="cls-39" points="106.93 26.13 112.97 20.42 308.22 198.8 302.19 204.51 106.93 26.13"/>
          <polygon class="cls-11" points="112.97 20.42 119 14.71 314.25 193.1 308.22 198.8 112.97 20.42"/>
          <polygon class="cls-51" points="119 14.71 125.03 9 320.28 187.39 314.25 193.1 119 14.71"/>
          <polygon class="cls-21" points="125.03 9 131.06 3.29 326.31 181.68 320.28 187.39 125.03 9"/>
          <polygon class="cls-32" points="131.06 3.29 134.54 0 139.73 0 332.34 175.97 326.31 181.68 131.06 3.29"/>
          <polygon class="cls-59" points="152.01 0 338.37 170.26 332.34 175.97 139.73 0 152.01 0"/>
          <polygon class="cls-62" points="164.29 0 344.4 164.55 338.37 170.26 152.01 0 164.29 0"/>
          <polygon class="cls-14" points="176.57 0 350.44 158.84 344.4 164.55 164.29 0 176.57 0"/>
          <polygon class="cls-49" points="188.85 0 356.47 153.13 350.44 158.84 176.57 0 188.85 0"/>
          <polygon class="cls-64" points="201.13 0 362.5 147.43 356.47 153.13 188.85 0 201.13 0"/>
          <polygon class="cls-48" points="213.41 0 368.53 141.72 362.5 147.43 201.13 0 213.41 0"/>
          <polygon class="cls-2" points="225.69 0 374.56 136.01 368.53 141.72 213.41 0 225.69 0"/>
          <polygon class="cls-1" points="237.97 0 380.59 130.3 374.56 136.01 225.69 0 237.97 0"/>
          <polygon class="cls-63" points="250.25 0 386.62 124.59 380.59 130.3 237.97 0 250.25 0"/>
          <polygon class="cls-54" points="262.53 0 391.52 117.85 391.52 119.96 386.62 124.59 250.25 0 262.53 0"/>
          <polygon class="cls-44" points="274.81 0 391.52 106.63 391.52 117.85 262.53 0 274.81 0"/>
          <polygon class="cls-37" points="287.09 0 391.52 95.41 391.52 106.63 274.81 0 287.09 0"/>
          <polygon class="cls-23" points="299.37 0 391.52 84.19 391.52 95.41 287.09 0 299.37 0"/>
          <polygon class="cls-8" points="311.65 0 391.52 72.97 391.52 84.19 299.37 0 311.65 0"/>
          <polygon class="cls-47" points="323.93 0 391.52 61.75 391.52 72.97 311.65 0 323.93 0"/>
          <polygon class="cls-57" points="336.21 0 391.52 50.53 391.52 61.75 323.93 0 336.21 0"/>
          <polygon class="cls-22" points="348.49 0 391.52 39.31 391.52 50.53 336.21 0 348.49 0"/>
          <polygon class="cls-52" points="360.77 0 391.52 28.09 391.52 39.31 348.49 0 360.77 0"/>
          <polygon class="cls-69" points="373.05 0 391.52 16.88 391.52 28.09 360.77 0 373.05 0"/>
          <polygon class="cls-61" points="385.33 0 391.52 5.66 391.52 16.88 373.05 0 385.33 0"/>
          <polygon class="cls-36" points="391.52 5.66 385.33 0 391.52 0 391.52 5.66"/>
        </g>
        <g class="cls-70">
          <polygon class="cls-26" points="51.28 424.05 63.3 435.02 51.28 435.02 51.28 424.05"/>
          <polygon class="cls-3" points="51.28 412.83 75.57 435.02 63.3 435.02 51.28 424.05 51.28 412.83"/>
          <polygon class="cls-28" points="51.28 401.61 87.85 435.02 75.57 435.02 51.28 412.83 51.28 401.61"/>
          <polygon class="cls-5" points="51.28 390.39 100.13 435.02 87.85 435.02 51.28 401.61 51.28 390.39"/>
          <polygon class="cls-53" points="51.28 379.17 112.41 435.02 100.13 435.02 51.28 390.39 51.28 379.17"/>
          <polygon class="cls-38" points="51.28 367.95 124.69 435.02 112.41 435.02 51.28 379.17 51.28 367.95"/>
          <polygon class="cls-50" points="51.28 356.73 136.97 435.02 124.69 435.02 51.28 367.95 51.28 356.73"/>
          <polygon class="cls-42" points="51.28 345.51 149.25 435.02 136.97 435.02 51.28 356.73 51.28 345.51"/>
          <polygon class="cls-55" points="51.28 334.3 161.53 435.02 149.25 435.02 51.28 345.51 51.28 334.3"/>
          <polygon class="cls-12" points="51.28 323.08 173.81 435.02 161.53 435.02 51.28 334.3 51.28 323.08"/>
          <polygon class="cls-16" points="51.28 315.07 53.01 313.43 186.09 435.02 173.81 435.02 51.28 323.08 51.28 315.07"/>
          <polygon class="cls-29" points="53.01 313.43 59.04 307.72 198.37 435.02 186.09 435.02 53.01 313.43"/>
          <polygon class="cls-27" points="59.04 307.72 65.07 302.02 210.65 435.02 198.37 435.02 59.04 307.72"/>
          <polygon class="cls-17" points="65.07 302.02 71.1 296.31 222.93 435.02 210.65 435.02 65.07 302.02"/>
          <polygon class="cls-31" points="71.1 296.31 77.13 290.6 235.21 435.02 222.93 435.02 71.1 296.31"/>
          <polygon class="cls-58" points="77.13 290.6 83.17 284.89 247.49 435.02 235.21 435.02 77.13 290.6"/>
          <polygon class="cls-65" points="83.17 284.89 89.2 279.18 259.77 435.02 247.49 435.02 83.17 284.89"/>
          <polygon class="cls-13" points="89.2 279.18 95.23 273.47 272.05 435.02 259.77 435.02 89.2 279.18"/>
          <polygon class="cls-68" points="95.23 273.47 101.26 267.76 284.33 435.02 272.05 435.02 95.23 273.47"/>
          <polygon class="cls-46" points="101.26 267.76 107.29 262.06 296.61 435.02 284.33 435.02 101.26 267.76"/>
          <polygon class="cls-41" points="107.29 262.06 113.32 256.35 308.57 434.73 308.27 435.02 296.61 435.02 107.29 262.06"/>
          <polygon class="cls-6" points="113.32 256.35 119.35 250.64 314.6 429.02 308.57 434.73 113.32 256.35"/>
          <polygon class="cls-9" points="119.35 250.64 125.39 244.93 320.64 423.31 314.6 429.02 119.35 250.64"/>
          <polygon class="cls-24" points="125.39 244.93 131.42 239.22 326.67 417.6 320.64 423.31 125.39 244.93"/>
          <polygon class="cls-60" points="131.42 239.22 137.45 233.51 332.7 411.9 326.67 417.6 131.42 239.22"/>
          <polygon class="cls-33" points="137.45 233.51 143.48 227.8 338.73 406.19 332.7 411.9 137.45 233.51"/>
          <polygon class="cls-15" points="143.48 227.8 149.51 222.09 344.76 400.48 338.73 406.19 143.48 227.8"/>
          <polygon class="cls-20" points="149.51 222.09 155.54 216.39 350.79 394.77 344.76 400.48 149.51 222.09"/>
          <polygon class="cls-45" points="155.54 216.39 161.57 210.68 356.82 389.06 350.79 394.77 155.54 216.39"/>
          <polygon class="cls-10" points="161.57 210.68 167.61 204.97 362.86 383.35 356.82 389.06 161.57 210.68"/>
          <polygon class="cls-18" points="167.61 204.97 173.64 199.26 368.89 377.64 362.86 383.35 167.61 204.97"/>
          <polygon class="cls-67" points="173.64 199.26 179.67 193.55 374.92 371.94 368.89 377.64 173.64 199.26"/>
          <polygon class="cls-25" points="179.67 193.55 185.7 187.84 380.95 366.23 374.92 371.94 179.67 193.55"/>
          <polygon class="cls-34" points="185.7 187.84 191.73 182.13 386.98 360.52 380.95 366.23 185.7 187.84"/>
          <polygon class="cls-7" points="191.73 182.13 197.76 176.42 393.01 354.81 386.98 360.52 191.73 182.13"/>
          <polygon class="cls-35" points="197.76 176.42 203.79 170.72 399.04 349.1 393.01 354.81 197.76 176.42"/>
          <polygon class="cls-56" points="203.79 170.72 209.82 165.01 405.08 343.39 399.04 349.1 203.79 170.72"/>
          <polygon class="cls-4" points="209.82 165.01 215.86 159.3 411.11 337.68 405.08 343.39 209.82 165.01"/>
          <polygon class="cls-66" points="215.86 159.3 221.89 153.59 417.14 331.97 411.11 337.68 215.86 159.3"/>
          <polygon class="cls-43" points="221.89 153.59 227.92 147.88 423.17 326.27 417.14 331.97 221.89 153.59"/>
          <polygon class="cls-19" points="227.92 147.88 233.95 142.17 429.2 320.56 423.17 326.27 227.92 147.88"/>
          <polygon class="cls-39" points="233.95 142.17 239.98 136.46 435.23 314.85 429.2 320.56 233.95 142.17"/>
          <polygon class="cls-11" points="239.98 136.46 240.85 135.64 251.36 135.64 441.26 309.14 435.23 314.85 239.98 136.46"/>
          <polygon class="cls-51" points="263.64 135.64 442.81 299.33 442.81 307.68 441.26 309.14 251.36 135.64 263.64 135.64"/>
          <polygon class="cls-21" points="275.92 135.64 442.81 288.11 442.81 299.33 263.64 135.64 275.92 135.64"/>
          <polygon class="cls-32" points="288.2 135.64 442.81 276.89 442.81 288.11 275.92 135.64 288.2 135.64"/>
          <polygon class="cls-59" points="300.48 135.64 442.81 265.67 442.81 276.89 288.2 135.64 300.48 135.64"/>
          <polygon class="cls-62" points="312.76 135.64 442.81 254.45 442.81 265.67 300.48 135.64 312.76 135.64"/>
          <polygon class="cls-14" points="325.04 135.64 442.81 243.23 442.81 254.45 312.76 135.64 325.04 135.64"/>
          <polygon class="cls-49" points="337.32 135.64 442.81 232.02 442.81 243.23 325.04 135.64 337.32 135.64"/>
          <polygon class="cls-64" points="349.6 135.64 442.81 220.8 442.81 232.02 337.32 135.64 349.6 135.64"/>
          <polygon class="cls-48" points="361.88 135.64 442.81 209.58 442.81 220.8 349.6 135.64 361.88 135.64"/>
          <polygon class="cls-2" points="374.16 135.64 442.81 198.36 442.81 209.58 361.88 135.64 374.16 135.64"/>
          <polygon class="cls-1" points="386.44 135.64 442.81 187.14 442.81 198.36 374.16 135.64 386.44 135.64"/>
          <polygon class="cls-63" points="398.72 135.64 442.81 175.92 442.81 187.14 386.44 135.64 398.72 135.64"/>
          <polygon class="cls-54" points="411 135.64 442.81 164.7 442.81 175.92 398.72 135.64 411 135.64"/>
          <polygon class="cls-44" points="423.28 135.64 442.81 153.48 442.81 164.7 411 135.64 423.28 135.64"/>
          <polygon class="cls-37" points="435.56 135.64 442.81 142.26 442.81 153.48 423.28 135.64 435.56 135.64"/>
          <polygon class="cls-23" points="442.81 142.26 435.56 135.64 442.81 135.64 442.81 142.26"/>
        </g>
      </g>
      <g>
        <path class="cls-40" d="m621.11,159.15c-1.01,7.95,4.9,13.33,38.84,13.33,31.69,0,36.71-2.34,37.48-8.42.89-7.02-3.72-7.95-37.32-9.12-64.72-2.34-88.07-14.5-83.25-52.62,4.56-36.02,37.58-51.45,94.37-51.45s85.9,15.44,80.6,57.3h-53.49c1.1-8.65-11.01-10.52-37.14-10.52s-30.42,1.4-31.22,7.72c-.8,6.31,4.37,6.08,35.47,7.48,56.46,2.57,91.08,7.02,85.66,49.82-5.71,45.14-40.09,56.6-99.13,56.6s-90.52-11.46-84.36-60.11h53.49Z"/>
        <path class="cls-40" d="m995.65,216.92h-53.49l9.86-77.88-49.16,77.88h-34.98l-29.44-77.88-9.86,77.88h-53.49l20.73-163.72h65.84l32.59,93.55,56.29-93.55h65.84l-20.73,163.72Z"/>
        <path class="cls-40" d="m1158.21,187.45h-61.31l-13.61,29.47h-58.84l80.39-163.72h79.42l38.94,163.72h-58.84l-6.14-29.47Zm-8.66-42.1l-10.33-50.05-23,50.05h33.33Z"/>
        <path class="cls-40" d="m1408.16,104.66h-61.72l-14.21,112.26h-53.49l14.21-112.26h-61.72l6.51-51.45h176.94l-6.51,51.45Z"/>
        <path class="cls-40" d="m1532.24,50.87c57.61,0,84.74,22.92,80.46,74.61h-54.73c-.1-15.44-9.62-23.15-32.25-23.15-31.68,0-38.96,15.2-41.15,32.51-2.22,17.54,1.38,32.98,32.86,32.98,22.63,0,34.13-7.95,38.17-23.62h54.73c-8.84,51.92-41.6,75.08-99.41,75.08-63.37,0-87.06-27.37-79.84-84.43,7.2-56.83,37.79-83.96,101.16-83.96Z"/>
        <path class="cls-40" d="m1844.05,53.21l-20.73,163.72h-53.49l7.11-56.13h-84.35l-7.11,56.13h-53.49l20.73-163.72h53.49l-7.11,56.13h84.35l7.11-56.13h53.49Z"/>
      </g>
      <g>
        <path class="cls-40" d="m562.91,353.74l9.44-87.26h35.53c9.31,0,17.27,1.85,23.89,5.55,6.62,3.7,11.53,8.83,14.73,15.39,3.19,6.57,4.33,14.13,3.41,22.69-.93,8.56-3.7,16.12-8.31,22.69-4.62,6.57-10.64,11.7-18.06,15.39-7.42,3.7-15.79,5.55-25.1,5.55h-35.53Zm10.09-7.98h25.8c7.73,0,14.6-1.51,20.62-4.55,6.02-3.03,10.9-7.23,14.64-12.59,3.74-5.36,5.98-11.53,6.74-18.51.76-7.06-.15-13.25-2.73-18.57-2.58-5.32-6.56-9.49-11.92-12.53-5.37-3.03-11.91-4.55-19.64-4.55h-25.8l-7.71,71.3Z"/>
        <path class="cls-40" d="m694.55,353.74l9.44-87.26h9.22l-9.44,87.26h-9.22Z"/>
        <path class="cls-40" d="m799.05,354.49c-6.65,0-12.66-1.1-18.03-3.3-5.37-2.2-9.9-5.3-13.58-9.29-3.68-3.99-6.37-8.68-8.07-14.08-1.7-5.4-2.21-11.3-1.51-17.7.69-6.4,2.47-12.3,5.34-17.7,2.87-5.4,6.6-10.1,11.18-14.09,4.58-3.99,9.8-7.08,15.65-9.29,5.85-2.2,12.1-3.3,18.74-3.3s12.62,1.04,17.93,3.12c5.3,2.08,9.67,5.24,13.12,9.47l-6.37,5.86c-3.26-3.66-7.01-6.27-11.24-7.85-4.23-1.58-8.89-2.37-13.95-2.37-5.4,0-10.46.89-15.19,2.68-4.72,1.79-8.94,4.32-12.66,7.61-3.72,3.28-6.75,7.1-9.09,11.47-2.34,4.36-3.8,9.16-4.36,14.4-.56,5.15-.14,9.93,1.25,14.34,1.39,4.4,3.6,8.25,6.61,11.53,3.01,3.28,6.68,5.82,11.02,7.6,4.34,1.79,9.16,2.68,14.48,2.68,4.99,0,9.78-.75,14.39-2.24,4.61-1.5,8.97-4.03,13.1-7.6l4.48,6.98c-4.55,3.66-9.71,6.42-15.48,8.29-5.77,1.87-11.69,2.81-17.75,2.81Zm33.24-11.09l-8.73-1.12,3.48-32.16h8.85l-3.6,33.28Z"/>
        <path class="cls-40" d="m885.89,353.74l9.44-87.26h9.22l-9.44,87.26h-9.22Z"/>
        <path class="cls-40" d="m969.16,353.74l8.57-79.28h-30.66l.86-7.98h70.55l-.86,7.98h-30.66l-8.57,79.28h-9.22Z"/>
        <path class="cls-40" d="m1034.1,353.74l49.33-87.26h9.1l30.45,87.26h-9.72l-27.79-81.9h3.74l-45.51,81.9h-9.6Zm18.23-23.31l3.55-7.48h50.73l1.93,7.48h-56.22Z"/>
        <path class="cls-40" d="m1166.11,353.74l9.44-87.26h9.22l-8.57,79.28h48.87l-.86,7.98h-58.09Z"/>
      </g>
    </g>
  </g>
</svg>