<?xml version="1.0" encoding="UTF-8"?>
<svg id="Layer_2" data-name="Layer 2" xmlns="http://www.w3.org/2000/svg" xmlns:xlink="http://www.w3.org/1999/xlink" viewBox="0 0 1657.83 368.92">
  <defs>
    <style>
      .cls-1 {
        fill: url(#linear-gradient);
      }

      .cls-1, .cls-2 {
        stroke-width: 0px;
      }

      .cls-3 {
        font-family: Montserrat-Italic, Montserrat;
        font-size: 105.71px;
        font-variation-settings: 'wght' 400;
      }

      .cls-3, .cls-4 {
        fill: #fff;
        font-style: italic;
      }

      .cls-4 {
        font-family: DrukWideTrial-HeavyItalic, 'Druk Wide Trial';
        font-size: 174.47px;
        font-weight: 800;
      }

      .cls-2 {
        fill: url(#linear-gradient-2);
      }
    </style>
    <linearGradient id="linear-gradient" x1="-839.02" y1="211.24" x2="-572.84" y2="-143.67" gradientTransform="translate(855.39 96.54) scale(1 .97) skewX(-15.28)" gradientUnits="userSpaceOnUse">
      <stop offset="0" stop-color="#f5c540"/>
      <stop offset="1" stop-color="#fe7e0b"/>
    </linearGradient>
    <linearGradient id="linear-gradient-2" x1="-703.54" y1="312.85" x2="-437.36" y2="-42.06" xlink:href="#linear-gradient"/>
  </defs>
  <g id="Layer_1-2" data-name="Layer 1">
    <g>
      <g>
        <polygon class="cls-1" points="168.17 253.89 187.58 185.11 129.91 185.11 99.22 126.95 162.73 68.78 312.62 68.78 332.03 0 147.58 0 46.52 92.55 19.41 92.55 9.96 126.03 8.96 126.95 9.45 127.86 0 161.34 27.11 161.34 75.94 253.89 168.17 253.89"/>
        <polygon class="cls-2" points="366.07 241.06 375.52 207.58 348.41 207.58 299.57 115.03 207.35 115.03 187.94 183.81 245.61 183.81 276.3 241.97 212.79 300.14 62.9 300.14 43.49 368.92 227.94 368.92 329 276.36 356.11 276.36 365.56 242.89 366.56 241.97 366.07 241.06"/>
      </g>
      <text class="cls-4" transform="translate(465.13 173.36)"><tspan x="0" y="0">SMATCH</tspan></text>
      <text class="cls-3" transform="translate(465.13 310.58)"><tspan x="0" y="0">DIGITAL</tspan></text>
    </g>
  </g>
</svg>