<?xml version="1.0" encoding="UTF-8"?>
<svg id="Layer_2" data-name="Layer 2" xmlns="http://www.w3.org/2000/svg" xmlns:xlink="http://www.w3.org/1999/xlink" viewBox="0 0 1218.09 298.01">
  <defs>
    <style>
      .cls-1 {
        fill: url(#linear-gradient);
      }

      .cls-1, .cls-2, .cls-3 {
        stroke-width: 0px;
      }

      .cls-2 {
        fill: #fff;
      }

      .cls-3 {
        fill: url(#linear-gradient-2);
      }
    </style>
    <linearGradient id="linear-gradient" x1="-837.4" y1="152.63" x2="-622.38" y2="-134.06" gradientTransform="translate(845.7 95.43) scale(1 .97) skewX(-15.28)" gradientUnits="userSpaceOnUse">
      <stop offset="0" stop-color="#f5c540"/>
      <stop offset="1" stop-color="#fe7e0b"/>
    </linearGradient>
    <linearGradient id="linear-gradient-2" x1="-727.96" y1="234.71" x2="-512.94" y2="-51.98" xlink:href="#linear-gradient"/>
  </defs>
  <g id="Layer_1-2" data-name="Layer 1">
    <g>
      <g>
        <polygon class="cls-1" points="135.85 205.09 151.52 149.53 104.94 149.53 80.15 102.55 131.45 55.56 252.54 55.56 268.21 0 119.21 0 37.58 74.77 15.68 74.77 8.05 101.81 7.24 102.55 7.63 103.28 0 130.33 21.9 130.33 61.35 205.09 135.85 205.09"/>
        <polygon class="cls-3" points="295.72 194.73 303.35 167.69 281.45 167.69 242 92.92 167.5 92.92 151.82 148.48 198.41 148.48 223.2 195.47 171.89 242.45 50.81 242.45 35.13 298.01 184.13 298.01 265.77 223.25 287.67 223.25 295.3 196.2 296.11 195.47 295.72 194.73"/>
      </g>
      <g>
        <path class="cls-2" d="m431.77,101.24c-1.06,5.03,2.73,8.43,25.99,8.43,21.71,0,25.26-1.48,26.07-5.32.93-4.44-2.18-5.03-25.14-5.77-44.23-1.48-59.66-9.17-54.58-33.27,4.8-22.77,28.14-32.53,67.04-32.53s58.13,9.76,52.55,36.23h-36.65c1.15-5.47-7.05-6.65-24.95-6.65s-20.91.89-21.75,4.88c-.84,3.99,2.71,3.84,23.95,4.73,38.56,1.63,62.07,4.44,56.37,31.5-6.01,28.54-30.09,35.78-70.54,35.78s-61.48-7.25-55-38h36.65Z"/>
        <path class="cls-2" d="m674.38,137.76h-36.65l10.38-49.24-37.3,49.24h-23.96l-16.54-49.24-10.38,49.24h-36.65l21.81-103.5h45.1l17.98,59.14,42.91-59.14h45.1l-21.81,103.5Z"/>
        <path class="cls-2" d="m775.84,119.13h-42l-10.69,18.63h-40.31l62.68-103.5h54.41l19.06,103.5h-40.31l-2.84-18.63Zm-3.98-26.61l-4.75-31.64-18.08,31.64h22.83Z"/>
        <path class="cls-2" d="m939.64,66.78h-42.28l-14.96,70.97h-36.65l14.96-70.97h-42.28l6.85-32.53h121.21l-6.85,32.53Z"/>
        <path class="cls-2" d="m1015.87,32.78c39.46,0,56.99,14.49,51.65,47.17h-37.49c.65-9.76-5.51-14.64-21.02-14.64-21.71,0-27.4,9.61-29.7,20.55-2.34,11.09-.59,20.85,20.98,20.85,15.5,0,23.75-5.03,27.25-14.93h37.49c-8.47,32.83-31.99,47.46-71.59,47.46-43.41,0-58.37-17.3-50.77-53.38,7.57-35.93,29.79-53.08,73.2-53.08Z"/>
        <path class="cls-2" d="m1218.09,34.26l-21.81,103.5h-36.65l7.48-35.49h-57.79l-7.48,35.49h-36.65l21.81-103.5h36.65l-7.48,35.49h57.79l7.48-35.49h36.65Z"/>
      </g>
      <g>
        <path class="cls-2" d="m381.03,250.89l11.96-59.78h22.71c6.03,0,11.14,1.01,15.33,3.03,4.18,2.02,7.37,4.84,9.56,8.45,2.19,3.62,3.29,7.9,3.29,12.85,0,5.24-.87,10.03-2.6,14.39-1.74,4.36-4.24,8.1-7.51,11.23-3.27,3.13-7.19,5.55-11.74,7.26-4.56,1.71-9.65,2.56-15.29,2.56h-25.7Zm7.34-5.46h18.53c6.32,0,11.77-1.28,16.35-3.84,4.58-2.56,8.11-6.08,10.59-10.55,2.48-4.47,3.71-9.58,3.71-15.33,0-3.81-.83-7.16-2.48-10.03-1.65-2.87-4.14-5.11-7.47-6.7-3.33-1.59-7.53-2.39-12.6-2.39h-16.91l-9.73,48.85Z"/>
        <path class="cls-2" d="m485.72,250.89l11.96-59.78h6.23l-11.96,59.78h-6.23Z"/>
        <path class="cls-2" d="m573.76,251.4c-5.86,0-10.88-1.04-15.03-3.12-4.16-2.08-7.34-4.98-9.56-8.71-2.22-3.73-3.33-8.07-3.33-13.02s.84-9.51,2.52-13.83c1.68-4.33,4.1-8.16,7.26-11.49,3.16-3.33,6.99-5.93,11.49-7.81,4.5-1.88,9.56-2.82,15.2-2.82,5.01,0,9.41.75,13.19,2.26,3.79,1.51,6.79,3.66,9.01,6.45l-4.44,3.84c-2.05-2.39-4.57-4.14-7.56-5.25-2.99-1.11-6.48-1.67-10.46-1.67-4.61,0-8.75.78-12.42,2.35-3.67,1.57-6.8,3.71-9.39,6.45-2.59,2.73-4.6,5.92-6.02,9.56-1.42,3.64-2.13,7.54-2.13,11.7,0,3.81.84,7.19,2.52,10.12,1.68,2.93,4.18,5.22,7.51,6.87,3.33,1.65,7.44,2.48,12.34,2.48,3.59,0,6.87-.6,9.86-1.79,2.99-1.2,5.76-2.9,8.33-5.12l2.56,5.12c-2.73,2.28-5.96,4.09-9.69,5.42-3.73,1.34-7.64,2.01-11.74,2.01Zm15.63-8.37l4.36-22.03h6.06l-4.61,22.97-5.81-.94Z"/>
        <path class="cls-2" d="m645.83,250.89l11.96-59.78h6.23l-11.96,59.78h-6.23Z"/>
        <path class="cls-2" d="m717.39,250.89l10.84-54.31h-21.09l1.11-5.47h48.33l-1.11,5.47h-21.01l-10.85,54.31h-6.23Z"/>
        <path class="cls-2" d="m776.4,250.89l39.28-59.78h6.23l15.37,59.78h-6.32l-14-56.28h2.56l-36.29,56.28h-6.83Zm13.92-15.97l2.9-5.12h34.76l.94,5.12h-38.6Z"/>
        <path class="cls-2" d="m881.35,250.89l11.96-59.78h6.23l-10.84,54.31h33.47l-1.11,5.46h-39.71Z"/>
      </g>
    </g>
  </g>
</svg>