<svg width="137" height="42" viewBox="0 0 137 42" fill="none" xmlns="http://www.w3.org/2000/svg">
<path d="M59.9631 9.81534C59.9157 9.29451 59.705 8.88968 59.331 8.60085C58.9616 8.30729 58.4337 8.16051 57.7472 8.16051C57.2926 8.16051 56.9138 8.2197 56.6108 8.33807C56.3078 8.45644 56.0805 8.61979 55.929 8.82812C55.7775 9.03172 55.6993 9.2661 55.6946 9.53125C55.6851 9.74905 55.7277 9.94081 55.8224 10.1065C55.9219 10.2723 56.0639 10.419 56.2486 10.5469C56.438 10.67 56.6652 10.7789 56.9304 10.8736C57.1955 10.9683 57.4938 11.0511 57.8253 11.1222L59.0753 11.4062C59.795 11.5625 60.4295 11.7708 60.9787 12.0312C61.5327 12.2917 61.9967 12.6018 62.3707 12.9616C62.7495 13.3215 63.036 13.7358 63.2301 14.2045C63.4242 14.6733 63.5237 15.1989 63.5284 15.7812C63.5237 16.6998 63.2917 17.4882 62.8324 18.1463C62.3731 18.8045 61.7126 19.3087 60.8509 19.6591C59.9938 20.0095 58.9593 20.1847 57.7472 20.1847C56.5303 20.1847 55.4697 20.0024 54.5653 19.6378C53.661 19.2732 52.9579 18.7192 52.456 17.9759C51.9541 17.2325 51.696 16.2926 51.6818 15.1562H55.0483C55.0767 15.625 55.2022 16.0156 55.4247 16.3281C55.6473 16.6406 55.9527 16.8774 56.3409 17.0384C56.7339 17.1993 57.1884 17.2798 57.7045 17.2798C58.178 17.2798 58.5805 17.2159 58.9119 17.0881C59.2481 16.9602 59.5062 16.7827 59.6861 16.5554C59.866 16.3281 59.9583 16.0677 59.9631 15.7741C59.9583 15.4995 59.8731 15.2652 59.7074 15.071C59.5417 14.8722 59.286 14.7017 58.9403 14.5597C58.5994 14.4129 58.1638 14.2779 57.6335 14.1548L56.1136 13.7997C54.8542 13.5109 53.8622 13.0445 53.1378 12.4006C52.4134 11.7519 52.0535 10.8759 52.0582 9.77273C52.0535 8.87311 52.295 8.08475 52.7827 7.40767C53.2704 6.73059 53.9451 6.20265 54.8068 5.82386C55.6686 5.44508 56.651 5.25568 57.7543 5.25568C58.8812 5.25568 59.8589 5.44744 60.6875 5.83097C61.5208 6.20975 62.1671 6.74242 62.6264 7.42898C63.0857 8.11553 63.3201 8.91098 63.3295 9.81534H59.9631ZM64.704 5.45455H69.0577L72.7509 14.4602H72.9213L76.6145 5.45455H80.9682V20H77.5449V11.0653H77.4241L73.9298 19.9077H71.7423L68.248 11.0156H68.1273V20H64.704V5.45455ZM85.7073 20H81.9289L86.8366 5.45455H91.517L96.4246 20H92.6462L89.23 9.11932H89.1164L85.7073 20ZM85.2031 14.2756H93.1008V16.946H85.2031V14.2756ZM95.0984 8.30966V5.45455H107.392V8.30966H102.982V20H99.5161V8.30966H95.0984ZM121.049 10.7244H117.497C117.45 10.3598 117.353 10.0308 117.206 9.73722C117.059 9.44366 116.865 9.19271 116.624 8.98438C116.382 8.77604 116.096 8.61742 115.764 8.50852C115.438 8.39489 115.075 8.33807 114.678 8.33807C113.972 8.33807 113.364 8.51089 112.852 8.85653C112.346 9.20218 111.955 9.7017 111.681 10.3551C111.411 11.0085 111.276 11.7992 111.276 12.7273C111.276 13.6932 111.413 14.5028 111.688 15.1562C111.967 15.8049 112.358 16.295 112.86 16.6264C113.366 16.9531 113.965 17.1165 114.656 17.1165C115.045 17.1165 115.397 17.0668 115.715 16.9673C116.037 16.8679 116.318 16.7235 116.56 16.5341C116.806 16.34 117.007 16.1056 117.164 15.831C117.325 15.5516 117.436 15.2367 117.497 14.8864L121.049 14.9077C120.987 15.5516 120.8 16.1861 120.487 16.8111C120.18 17.4361 119.756 18.0066 119.216 18.5227C118.676 19.0341 118.018 19.4413 117.242 19.7443C116.47 20.0473 115.584 20.1989 114.585 20.1989C113.269 20.1989 112.09 19.91 111.049 19.3324C110.012 18.75 109.192 17.9025 108.591 16.7898C107.99 15.6771 107.689 14.3229 107.689 12.7273C107.689 11.1269 107.995 9.77036 108.605 8.65767C109.216 7.54498 110.042 6.69981 111.084 6.12216C112.126 5.54451 113.293 5.25568 114.585 5.25568C115.466 5.25568 116.281 5.37879 117.029 5.625C117.777 5.86648 118.435 6.22159 119.003 6.69034C119.571 7.15436 120.033 7.72491 120.388 8.40199C120.743 9.07907 120.963 9.85322 121.049 10.7244ZM122.46 20V5.45455H125.976V11.2926H131.707V5.45455H135.216V20H131.707V14.1548H125.976V20H122.46Z" fill="white"/>
<path d="M54.7159 36H52.1591V27.2727H54.8693C55.7017 27.2727 56.4134 27.446 57.0043 27.7926C57.598 28.1392 58.0526 28.6364 58.3679 29.2841C58.6832 29.9318 58.8409 30.7088 58.8409 31.6151C58.8409 32.5298 58.679 33.3153 58.3551 33.9716C58.0341 34.625 57.5653 35.1264 56.9489 35.4759C56.3352 35.8253 55.5909 36 54.7159 36ZM52.956 35.2841H54.669C55.419 35.2841 56.0469 35.1364 56.5526 34.8409C57.0582 34.5455 57.4375 34.1236 57.6903 33.5753C57.9432 33.027 58.0696 32.3736 58.0696 31.6151C58.0668 30.8622 57.9418 30.2145 57.6946 29.6719C57.4503 29.1293 57.0866 28.7131 56.6037 28.4233C56.1236 28.1335 55.5298 27.9886 54.8224 27.9886H52.956V35.2841ZM63.8492 27.2727V36H63.0524V27.2727H63.8492ZM74.4879 30C74.4084 29.7102 74.2919 29.4389 74.1385 29.1861C73.9851 28.9304 73.7947 28.7074 73.5675 28.517C73.343 28.3239 73.0831 28.1733 72.7876 28.0653C72.495 27.9574 72.1683 27.9034 71.8075 27.9034C71.2393 27.9034 70.7308 28.0511 70.2819 28.3466C69.8331 28.642 69.478 29.0682 69.2166 29.625C68.9581 30.1818 68.8288 30.8523 68.8288 31.6364C68.8288 32.4176 68.9595 33.0866 69.2209 33.6435C69.4822 34.2003 69.8402 34.6278 70.2947 34.9261C70.7521 35.2216 71.2748 35.3693 71.8629 35.3693C72.3998 35.3693 72.8743 35.25 73.2862 35.0114C73.6981 34.7727 74.0192 34.4318 74.2493 33.9886C74.4822 33.5455 74.5959 33.0185 74.5902 32.4077L74.8459 32.4886H72.0504V31.7727H75.3658V32.4886C75.3658 33.233 75.2152 33.8764 74.914 34.419C74.6129 34.9616 74.1996 35.3807 73.674 35.6761C73.1484 35.9716 72.5447 36.1193 71.8629 36.1193C71.1015 36.1193 70.4354 35.9361 69.8643 35.5696C69.2933 35.2003 68.8487 34.6804 68.5305 34.0099C68.2152 33.3366 68.0575 32.5455 68.0575 31.6364C68.0575 30.9517 68.1484 30.3338 68.3302 29.7827C68.5121 29.2315 68.7692 28.7599 69.1015 28.3679C69.4368 27.9759 69.8331 27.6761 70.2905 27.4688C70.7479 27.2585 71.2535 27.1534 71.8075 27.1534C72.2848 27.1534 72.7209 27.2287 73.1158 27.3793C73.5135 27.5298 73.8629 27.7372 74.164 28.0014C74.468 28.2628 74.7166 28.5653 74.9098 28.9091C75.1058 29.25 75.2379 29.6136 75.3061 30H74.4879ZM80.421 27.2727V36H79.6241V27.2727H80.421ZM84.4929 27.9886V27.2727H90.821V27.9886H88.0554V36H87.2585V27.9886H84.4929ZM93.8883 36H93.0531L96.2278 27.2727H97.08L100.255 36H99.4195L96.6837 28.3082H96.6241L93.8883 36ZM94.4891 32.6548H98.8187V33.3707H94.4891V32.6548ZM104.03 36V27.2727H104.827V35.2841H108.986V36H104.03Z" fill="white"/>
<rect width="42" height="42" rx="5" fill="url(#paint0_linear_223_294)"/>
<path d="M20.8778 32.0284C19.0653 32.0284 17.4517 31.7813 16.0369 31.2869C14.6222 30.7983 13.4261 30.0795 12.4489 29.1307C11.4716 28.1875 10.7273 27.0341 10.2159 25.6705C9.70455 24.3068 9.44886 22.7557 9.44886 21.017C9.44886 19.3011 9.70455 17.7443 10.2159 16.3466C10.733 14.9489 11.4858 13.75 12.4744 12.75C13.4631 11.7443 14.6705 10.9716 16.0966 10.4318C17.5284 9.89204 19.1591 9.62216 20.9886 9.62216C22.6818 9.62216 24.1932 9.86932 25.5227 10.3636C26.858 10.858 27.9886 11.5625 28.9148 12.4773C29.8466 13.3864 30.554 14.4687 31.0369 15.7244C31.5256 16.9744 31.767 18.358 31.7614 19.875C31.767 20.9205 31.6761 21.8807 31.4886 22.7557C31.3011 23.6307 31.0057 24.3949 30.6023 25.0483C30.2045 25.696 29.6818 26.2102 29.0341 26.5909C28.3864 26.9659 27.6023 27.179 26.6818 27.2301C26.0227 27.2813 25.4886 27.233 25.0795 27.0852C24.6705 26.9375 24.358 26.7187 24.142 26.429C23.9318 26.1335 23.7955 25.7898 23.733 25.3977H23.6307C23.4943 25.7386 23.2273 26.0483 22.8295 26.3267C22.4318 26.5994 21.946 26.8125 21.3722 26.9659C20.804 27.1136 20.1989 27.1676 19.5568 27.1278C18.8864 27.0881 18.25 26.9318 17.6477 26.6591C17.0511 26.3864 16.5199 25.9915 16.054 25.4744C15.5938 24.9574 15.2301 24.3182 14.9631 23.5568C14.7017 22.7955 14.5682 21.9148 14.5625 20.9148C14.5682 19.9261 14.7074 19.0653 14.9801 18.3324C15.2585 17.5994 15.625 16.983 16.0795 16.483C16.5398 15.983 17.0511 15.5909 17.6136 15.3068C18.1761 15.0227 18.7415 14.8409 19.3097 14.7614C19.9517 14.6648 20.5597 14.6648 21.1335 14.7614C21.7074 14.858 22.1903 15.0142 22.5824 15.2301C22.9801 15.446 23.2273 15.679 23.3239 15.929H23.4432V14.9744H26.1108V23.2926C26.1165 23.6847 26.2045 23.9886 26.375 24.2045C26.5455 24.4205 26.7756 24.5284 27.0653 24.5284C27.4574 24.5284 27.7841 24.3551 28.0455 24.0085C28.3125 23.6619 28.5114 23.1307 28.642 22.4148C28.7784 21.6989 28.8466 20.7869 28.8466 19.679C28.8466 18.6108 28.7045 17.6733 28.4205 16.8665C28.142 16.054 27.75 15.3636 27.2443 14.7955C26.7443 14.2216 26.1619 13.7557 25.4972 13.3977C24.8324 13.0398 24.1108 12.7784 23.3324 12.6136C22.5597 12.4489 21.7642 12.3665 20.946 12.3665C19.5313 12.3665 18.2955 12.5824 17.2386 13.0142C16.1818 13.4403 15.3011 14.0398 14.5966 14.8125C13.892 15.5852 13.3636 16.4915 13.0114 17.5312C12.6648 18.5653 12.4886 19.6932 12.483 20.9148C12.4886 22.2614 12.6761 23.4545 13.0455 24.4943C13.4205 25.5284 13.9716 26.3977 14.6989 27.1023C15.4261 27.8068 16.3239 28.3409 17.392 28.7045C18.4602 29.0682 19.6875 29.25 21.0739 29.25C21.7273 29.25 22.3665 29.2017 22.9915 29.1051C23.6165 29.0142 24.1818 28.9006 24.6875 28.7642C25.1932 28.6335 25.5994 28.5057 25.9062 28.3807L26.75 30.8523C26.392 31.0568 25.9063 31.2472 25.2926 31.4233C24.6847 31.6051 23.9972 31.75 23.2301 31.858C22.4688 31.9716 21.6847 32.0284 20.8778 32.0284ZM20.4858 24.3239C21.179 24.3239 21.7301 24.1903 22.1392 23.9233C22.554 23.6562 22.8494 23.2614 23.0256 22.7386C23.2074 22.2102 23.2926 21.5597 23.2812 20.7869C23.2756 20.1051 23.1875 19.5284 23.017 19.0568C22.8523 18.5795 22.5653 18.2187 22.1562 17.9744C21.7528 17.7244 21.1903 17.5994 20.4688 17.5994C19.8381 17.5994 19.3011 17.733 18.858 18C18.4205 18.267 18.0852 18.642 17.8523 19.125C17.625 19.6023 17.5085 20.1648 17.5028 20.8125C17.5085 21.4148 17.6051 21.9858 17.7926 22.5256C17.9801 23.0597 18.2898 23.4943 18.7216 23.8295C19.1534 24.1591 19.7415 24.3239 20.4858 24.3239Z" fill="#0A0A0A"/>
<defs>
<linearGradient id="paint0_linear_223_294" x1="-1.46129e-07" y1="1" x2="43" y2="43" gradientUnits="userSpaceOnUse">
<stop stop-color="#FEBE0B"/>
<stop offset="1" stop-color="#B86609"/>
</linearGradient>
</defs>
</svg>
