<svg width="235" height="40" viewBox="0 0 235 40" fill="none" xmlns="http://www.w3.org/2000/svg">
<path d="M90.3411 12.3748C90.3411 19.9943 90.3411 23.0022 80.2331 23.0022C90.3411 23.0022 90.3411 26.0101 90.3411 33.6296C90.3411 26.0553 90.3411 23.0022 100.29 23.0022C90.3411 23.0022 90.3411 19.9491 90.3411 12.3748Z" fill="url(#paint0_linear_5374_3057)"></path>
<path fill-rule="evenodd" clip-rule="evenodd" d="M40.5043 40C37.0085 40 33.9352 39.3009 31.2843 37.9027C28.6625 36.4753 26.6088 34.4943 25.1231 31.96C24.8838 31.5387 24.6641 31.1062 24.4642 30.6621L23.2902 39.3882H0V38.9514H0.0437371C1.09241 38.9514 1.93722 38.6745 2.57808 38.1212C3.21894 37.5676 3.53937 36.7666 3.53937 35.7178V10.5486C3.53937 9.50004 3.21894 8.65513 2.57808 8.01427C1.93722 7.37341 1.09241 7.05298 0.0437371 7.05298H0V6.61598H13.9392V7.05298H13.7644C12.7156 7.05298 11.8708 7.37341 11.23 8.01427C10.5891 8.65513 10.2687 9.50004 10.2687 10.5486V35.8926C10.2687 36.8248 10.4872 37.5531 10.9241 38.0774C11.3902 38.5726 12.1914 38.8202 13.3274 38.8202H14.245C16.8377 38.8202 19.0225 38.0192 20.7995 36.4169C22.5327 34.8542 23.6423 32.6681 24.1284 29.8586C23.335 27.8031 22.9383 25.5176 22.9383 23.0022C22.9383 19.5939 23.6665 16.6225 25.1231 14.088C26.6088 11.5245 28.6625 9.54359 31.2843 8.1453C33.9352 6.71791 37.0085 6.00422 40.5043 6.00422C43.9158 6.00422 46.911 6.68399 49.4902 8.04337C52.2413 6.68399 55.4363 6.00422 59.0753 6.00422C60.2114 6.00422 61.1436 6.04795 61.8718 6.13524C62.6292 6.19362 63.2993 6.26645 63.8819 6.35374C64.4645 6.44122 65.1054 6.52851 65.8045 6.61598C66.5328 6.67417 67.4359 6.70327 68.5137 6.70327L69.8246 15.4427H69.3876C68.8633 12.6752 67.6835 10.5049 65.8483 8.93182C64.0421 7.35877 61.7844 6.57224 59.0753 6.57224C57.4148 6.57224 55.9 6.96551 54.5308 7.75203C53.6289 8.27021 52.8154 8.92107 52.0905 9.70482C51.7531 10.0694 51.4349 10.4628 51.1359 10.885C51.1022 10.9326 51.0686 10.9806 51.0354 11.0292C50.7543 11.4463 50.4907 11.8885 50.2445 12.3557C49.9205 12.9705 49.6266 13.6291 49.3631 14.33C49.254 14.6193 49.1502 14.9162 49.0516 15.2205C48.9499 15.5343 48.8536 15.856 48.7629 16.1855C48.2385 18.1956 47.9764 20.4241 47.9764 22.871C47.9764 25.1266 48.1818 27.2008 48.5928 29.0939L47.8983 31.1564C47.5349 32.2357 47.0999 33.18 46.6001 33.998C46.2925 34.4834 45.9668 34.9193 45.6244 35.3083L45.5917 35.3455C44.5101 34.3603 43.5863 33.2319 42.8202 31.96C41.2763 29.3963 40.5043 26.3813 40.5043 22.9147C40.5043 19.5355 41.2763 16.5788 42.8202 14.0444C43.8743 12.3139 45.2138 10.8483 46.8384 9.64756C46.1818 8.88531 45.4541 8.25353 44.6554 7.75203C43.4028 6.96551 42.019 6.57224 40.5043 6.57224C38.9894 6.57224 37.6057 6.96551 36.353 7.75203C35.1004 8.53856 34.0372 9.64552 33.1632 11.0731C32.2602 12.5005 31.5611 14.2337 31.0658 16.2728C30.5997 18.2829 30.3666 20.5114 30.3666 22.9585C30.3666 25.4055 30.5997 27.6339 31.0658 29.6439C31.5611 31.654 32.2602 33.3727 33.1632 34.8001C34.0372 36.2277 35.1004 37.3346 36.353 38.1212C37.6057 38.9077 38.9894 39.3009 40.5043 39.3009C42.019 39.3009 43.4028 38.9077 44.6554 38.1212C45.908 37.3346 46.9859 36.2277 47.8889 34.8001C48.7629 33.3727 49.4329 31.654 49.899 29.6439C50.3942 27.6339 50.6418 25.4055 50.6418 22.9585C50.6418 20.746 50.4394 18.7121 50.0345 16.857L50.7842 14.8636C51.2109 13.729 51.7152 12.7386 52.2906 11.8832C52.4443 11.6598 52.6031 11.4467 52.7669 11.2434C52.9092 11.0666 53.0553 10.8974 53.2052 10.7354L53.238 10.7078C54.2524 11.6917 55.1203 12.8183 55.8417 14.088C57.3274 16.6225 58.0702 19.5939 58.0702 23.0022C58.0702 26.4105 57.3274 29.3963 55.8417 31.96C54.8542 33.6781 53.5922 35.142 52.0557 36.3515C52.7008 37.0576 53.4093 37.6475 54.1813 38.1212C55.4922 38.9077 56.9487 39.3009 58.5509 39.3009C59.7453 39.3009 60.8814 39.0971 61.9593 38.6892C63.0662 38.2813 63.911 37.7716 64.4936 37.1599V26.0173C64.4936 24.9685 64.1732 24.1236 63.5323 23.4828C62.8914 22.8419 62.0467 22.5215 60.9979 22.5215H60.8669V22.0845H72.7928C72.9131 19.0577 73.6353 16.3923 74.9597 14.088C76.4453 11.5245 78.4991 9.54359 81.1209 8.1453C83.7718 6.71791 86.8451 6.00422 90.3409 6.00422C93.8365 6.00422 96.8953 6.71791 99.517 8.1453C102.168 9.54359 104.222 11.5245 105.678 14.088C106.636 15.7209 107.284 17.5352 107.625 19.5308V10.5486C107.625 9.50004 107.304 8.65513 106.664 8.01427C106.023 7.37341 105.178 7.05298 104.129 7.05298H104.085V6.61598H130.376C132.619 6.64508 134.571 7.03834 136.232 7.79577C137.921 8.5241 139.232 9.54359 140.164 10.8546C140.515 11.3329 140.802 11.8426 141.025 12.3832C141.383 10.6956 142.252 9.31211 143.634 8.23277C145.528 6.74701 148.018 6.00422 151.106 6.00422C151.864 6.00422 152.475 6.03331 152.941 6.09169C153.138 6.11486 153.331 6.14025 153.519 6.16805C153.803 6.21011 154.077 6.25737 154.34 6.31001C154.806 6.39748 155.345 6.47031 155.956 6.52851C156.568 6.58688 157.355 6.61598 158.316 6.61598H172.12V7.05298H171.989C170.94 7.05298 170.095 7.37341 169.454 8.01427C168.813 8.65513 168.493 9.50004 168.493 10.5486V27.8961C168.493 30.984 169.28 33.4311 170.853 35.2371C172.455 37.0142 174.611 37.9027 177.32 37.9027C180.058 37.9027 182.214 36.9996 183.787 35.1936C185.36 33.3583 186.146 30.9258 186.146 27.8961V11.2041C186.146 9.95149 185.768 8.9611 185.01 8.23277C184.253 7.50444 183.248 7.11117 181.995 7.05298V6.61598H196.416L207.078 31.3045L217.74 6.61598H225.911V7.05298C224.979 7.05298 224.193 7.32967 223.552 7.88324C222.911 8.43663 222.62 9.19406 222.678 10.1554L224.906 36.0236C225.052 37.0142 225.518 37.757 226.305 38.2522C227.12 38.7474 227.922 38.995 228.708 38.995V39.3882H215.162V38.995C215.657 38.995 216.167 38.8786 216.692 38.6454C217.216 38.4125 217.638 38.0774 217.959 37.6404C218.308 37.2034 218.439 36.6938 218.352 36.1111L216.211 11.9906L204.063 40L191.828 11.9469L189.775 34.9313C189.658 36.0965 189.993 37.0433 190.78 37.7716C191.566 38.4998 192.527 38.893 193.663 38.9514V39.3882H184.924V38.9514C186.031 38.893 186.963 38.4853 187.721 37.7279C188.478 36.9705 188.915 36.0236 189.032 34.8876L191.217 10.7234C190.663 9.58732 189.964 8.69887 189.119 8.05801C188.975 7.93958 188.823 7.83172 188.664 7.73424C188.434 7.87806 188.222 8.04411 188.025 8.23277C187.268 8.9611 186.889 9.95149 186.889 11.2041V27.8961C186.889 30.3432 186.38 32.4698 185.36 34.2758C184.369 36.082 182.927 37.4948 181.034 38.5144C179.17 39.5048 176.941 40 174.348 40C171.785 40 169.556 39.5048 167.663 38.5144C165.769 37.5239 164.298 36.1256 163.25 34.3196C162.23 32.4843 161.72 30.3432 161.72 27.8961V10.5486C161.72 9.50004 161.4 8.65513 160.759 8.01427C160.141 7.39658 159.334 7.0767 158.338 7.05428L158.753 15.4427H158.316C157.908 12.7334 157.034 10.5924 155.694 9.0193C154.354 7.44624 152.738 6.65972 150.844 6.65972C149.504 6.65972 148.426 7.05298 147.61 7.83951C146.824 8.62603 146.431 9.6748 146.431 10.9856C146.431 12.1217 146.795 13.2142 147.523 14.2629C148.28 15.2824 149.577 16.4768 151.412 17.846L153.291 19.2443C155.214 20.6426 156.728 21.9388 157.835 23.1332C158.972 24.2984 159.787 25.4346 160.282 26.5416C160.778 27.6485 161.025 28.8283 161.025 30.0809C161.025 32.0035 160.545 33.7078 159.583 35.1934C158.622 36.6791 157.282 37.8443 155.563 38.6892C153.874 39.5048 151.878 39.9418 149.577 40C148.819 40 148.193 39.9709 147.698 39.9127C147.232 39.8543 146.766 39.7815 146.3 39.6942C145.833 39.6067 145.265 39.5339 144.595 39.4757C143.925 39.4175 143.008 39.3882 141.843 39.3882L140.313 28.0272H140.837C141.274 31.6103 142.265 34.3777 143.809 36.3296C145.382 38.2522 147.392 39.2135 149.839 39.2135C151.645 39.2135 153.116 38.7038 154.252 37.6842C155.388 36.6645 155.956 35.339 155.956 33.7078C155.956 33.0085 155.825 32.3386 155.563 31.6977C155.33 31.0569 154.922 30.3723 154.34 29.6439C153.757 28.9158 152.985 28.1293 152.024 27.2844C151.062 26.4105 149.868 25.4346 148.441 24.3568L146.649 23.0022C144.464 21.3417 142.949 19.8559 142.105 18.5451C141.838 18.1311 141.613 17.7054 141.431 17.268C141.212 18.3251 140.79 19.2897 140.164 20.1619C139.232 21.4727 137.892 22.507 136.144 23.2643C134.426 23.9926 132.386 24.3568 130.027 24.3568H126.007V35.4556C126.007 36.5044 126.327 37.3491 126.968 37.9899C127.609 38.631 128.454 38.9514 129.502 38.9514H129.59V39.3882H104.085V38.9514H104.129C105.178 38.9514 106.023 38.631 106.664 37.9899C107.304 37.3491 107.625 36.5044 107.625 35.4556V26.4791C107.284 28.4814 106.636 30.3083 105.678 31.96C104.222 34.4943 102.168 36.4753 99.517 37.9027C96.8953 39.3009 93.8365 40 90.3409 40C86.8451 40 83.7718 39.3009 81.1209 37.9027C78.4991 36.4753 76.4453 34.4943 74.9597 31.96C73.5091 29.4069 72.7808 26.4352 72.7749 23.0443C72.5785 23.1684 72.3961 23.3145 72.2279 23.4828C71.587 24.1236 71.2666 24.9685 71.2666 26.0173V37.1599C70.684 37.7424 69.7518 38.2522 68.47 38.6892C67.2174 39.0971 65.79 39.4175 64.1877 39.6505C62.6147 39.8836 61.0416 40 59.4686 40C55.666 40 52.3545 39.3267 49.5341 37.9798C46.945 39.3267 43.935 40 40.5043 40ZM94.492 38.1212C93.2394 38.9077 91.8556 39.3009 90.3409 39.3009C88.826 39.3009 87.4423 38.9077 86.1896 38.1212C84.937 37.3346 83.8738 36.2277 82.9998 34.8001C82.0968 33.3727 81.3976 31.654 80.9024 29.6439C80.4363 27.6339 80.2032 25.4055 80.2032 22.9585C80.2032 20.5114 80.4363 18.2829 80.9024 16.2728C81.3976 14.2337 82.0968 12.5005 82.9998 11.0731C83.8738 9.64552 84.937 8.53856 86.1896 7.75203C87.4423 6.96551 88.826 6.57224 90.3409 6.57224C91.8556 6.57224 93.2394 6.96551 94.492 7.75203C95.7446 8.53856 96.8225 9.64552 97.7255 11.0731C98.5995 12.5005 99.2694 14.2337 99.7355 16.2728C100.231 18.2829 100.478 20.5114 100.478 22.9585C100.478 25.4055 100.231 27.6339 99.7355 29.6439C99.2694 31.654 98.5995 33.3727 97.7255 34.8001C96.8225 36.2277 95.7446 37.3346 94.492 38.1212ZM118.316 37.9899C117.907 38.3995 117.414 38.6783 116.838 38.8261C116.261 38.6783 115.769 38.3995 115.359 37.9899C114.718 37.3491 114.398 36.5044 114.398 35.4556V10.5486C114.398 9.50004 114.718 8.65513 115.359 8.01427C115.769 7.6047 116.261 7.32597 116.838 7.17826C117.414 7.32597 117.907 7.6047 118.316 8.01427C118.957 8.65513 119.278 9.50004 119.278 10.5486V35.4556C119.278 36.5044 118.957 37.3491 118.316 37.9899ZM128.585 23.7887H126.007V7.18401H128.541C129.794 7.18401 130.886 7.54817 131.818 8.27651C132.751 8.97556 133.464 9.95149 133.96 11.2041C134.484 12.4567 134.746 13.8841 134.746 15.4863C134.746 17.0886 134.484 18.516 133.96 19.7686C133.464 21.0212 132.751 22.0116 131.818 22.74C130.915 23.4392 129.837 23.7887 128.585 23.7887Z" fill="url(#paint1_linear_5374_3057)"></path>
<path d="M234.463 3.03639C234.463 4.71335 233.103 6.07279 231.426 6.07279C229.749 6.07279 228.39 4.71335 228.39 3.03639C228.39 1.35944 229.749 0 231.426 0C233.103 0 234.463 1.35944 234.463 3.03639Z" fill="url(#paint2_linear_5374_3057)"></path>
<defs>
<linearGradient id="paint0_linear_5374_3057" x1="128.555" y1="0" x2="128.555" y2="40" gradientUnits="userSpaceOnUse">
<stop stop-color="white"></stop>
<stop offset="1" stop-color="#ADADAD"></stop>
</linearGradient>
<linearGradient id="paint1_linear_5374_3057" x1="128.555" y1="0" x2="128.555" y2="40" gradientUnits="userSpaceOnUse">
<stop stop-color="white"></stop>
<stop offset="1" stop-color="#ADADAD"></stop>
</linearGradient>
<linearGradient id="paint2_linear_5374_3057" x1="128.555" y1="0" x2="128.555" y2="40" gradientUnits="userSpaceOnUse">
<stop stop-color="white"></stop>
<stop offset="1" stop-color="#ADADAD"></stop>
</linearGradient>
</defs>
</svg>