<svg width="301" height="40" viewBox="0 0 301 40" fill="none" xmlns="http://www.w3.org/2000/svg">
<path fill-rule="evenodd" clip-rule="evenodd" d="M23.5156 0C23.9048 0 24.2917 0.00933158 24.6762 0.0280324C24.6838 0.0284056 24.6903 0.0222832 24.6903 0.0145966C24.6903 0.00716965 24.6963 0.0011489 24.7037 0.0011489H46.1999C46.6591 0.00137965 47.0312 0.373466 47.0312 0.83295C47.0312 1.05356 46.9437 1.26515 46.7878 1.42119L41.1512 7.05882H52.941C53.8757 7.05882 54.732 7.60915 55.0491 8.48891C55.9474 10.9811 56.4375 13.6685 56.4375 16.4706C56.4375 29.4655 45.9092 40 32.9219 40C32.5329 40 32.1462 39.9896 31.7619 39.9708C31.7539 39.9705 31.7472 39.9768 31.7472 39.9848C31.7472 39.9926 31.741 39.9989 31.7332 39.9989H10.2376C9.7784 39.9986 9.40625 39.6265 9.40625 39.1671C9.40628 38.9464 9.49382 38.7348 9.64967 38.5788L15.284 32.9412H3.49647C2.5618 32.9412 1.70554 32.3908 1.38843 31.5111C0.490111 29.0189 0 26.3315 0 23.5294C0 10.5345 10.5283 0 23.5156 0ZM31.5624 16.6556C29.6215 14.383 26.7374 12.9412 23.5156 12.9412C17.6713 12.9412 12.9336 17.6817 12.9336 23.5294C12.9336 24.7672 13.1475 25.9547 13.5376 27.0588H21.1629L24.8751 23.3444C26.816 25.617 29.7001 27.0588 32.9219 27.0588C38.7662 27.0588 43.5039 22.3183 43.5039 16.4706C43.5039 15.2328 43.29 14.0453 42.8999 12.9412H35.2746L31.5624 16.6556Z" fill="#ffffff"></path>
<path d="M290.844 30.1738V16.103C290.844 15.6975 290.48 15.3326 290.074 15.3326H289.548C289.223 15.3326 288.94 15.5353 288.818 15.8192L283.914 27.4164C283.225 29.1195 281.564 30.1738 279.74 30.1738C277.917 30.1738 276.296 29.1195 275.607 27.4164L270.662 15.8192C270.581 15.5353 270.298 15.3326 269.973 15.3326H269.447C269.041 15.3326 268.677 15.6975 268.677 16.103V30.1738H264.097V16.103C264.097 13.1429 266.488 10.7099 269.447 10.7099H269.973C272.121 10.7099 274.067 12.0075 274.918 14.035L279.74 25.47L284.563 14.035C285.414 12.0075 287.359 10.7099 289.548 10.7099H290.074C293.033 10.7099 295.424 13.1429 295.424 16.103V30.1738H290.844Z" fill="#ffffff"></path>
<path d="M243.196 30.1738C238.535 30.1738 234.767 26.4027 234.767 21.7394V10.7099H239.346V21.7394C239.346 23.848 241.089 25.5917 243.196 25.5917H252.922C255.03 25.5917 256.772 23.848 256.772 21.7394V10.7099H261.352V21.7394C261.352 26.4027 257.583 30.1738 252.922 30.1738H243.196Z" fill="#ffffff"></path>
<path d="M226.33 25.5917C227.1 25.5917 227.748 24.9429 227.748 24.1724C227.748 23.402 227.14 22.7937 226.411 22.7532H215.59C212.267 22.7532 209.592 20.0769 209.592 16.7518C209.592 13.4267 212.267 10.7099 215.59 10.7099H232.368V15.3326H215.59C214.82 15.3326 214.172 15.9814 214.172 16.7518C214.172 17.5223 214.82 18.1711 215.59 18.1711H226.492C229.734 18.2522 232.368 20.8879 232.368 24.1724C232.368 27.4975 229.653 30.1738 226.33 30.1738H209.592V25.5917H226.33Z" fill="#ffffff"></path>
<path d="M183.876 30.1738V16.103C183.876 13.1429 186.267 10.7099 189.226 10.7099H201.019C204.828 10.7099 207.908 13.8322 207.908 17.6439C207.908 21.4556 204.828 24.5779 201.019 24.5779H188.456V30.1738H183.876ZM188.456 16.103V19.9552H201.019C202.275 19.9552 203.329 18.901 203.329 17.6439C203.329 16.3869 202.275 15.3326 201.019 15.3326H189.226C188.821 15.3326 188.456 15.6975 188.456 16.103Z" fill="#ffffff"></path>
<path d="M176.163 10.7099H180.742V30.1738H176.163V10.7099Z" fill="#ffffff"></path>
<path d="M164.031 25.5917C166.868 25.5917 169.178 23.2803 169.178 20.4418C169.178 17.6439 166.868 15.3326 164.031 15.3326H156.898C154.062 15.3326 151.752 17.6439 151.752 20.4418C151.752 23.2803 154.062 25.5917 156.898 25.5917H164.031ZM164.031 10.7099C169.421 10.7099 173.757 15.0893 173.757 20.4418C173.757 25.835 169.421 30.1738 164.031 30.1738H156.898C151.508 30.1738 147.172 25.835 147.172 20.4418C147.172 15.0893 151.508 10.7099 156.898 10.7099H164.031Z" fill="#ffffff"></path>
<path d="M129.353 30.1738C123.963 30.1738 119.627 25.835 119.627 20.4418C119.627 15.0893 123.963 10.7099 129.353 10.7099H143.416V15.3326H129.353C126.517 15.3326 124.207 17.6439 124.207 20.4418C124.207 23.2803 126.517 25.5917 129.353 25.5917H139.688C140.458 25.5917 141.106 24.9429 141.106 24.1724C141.106 23.402 140.458 22.7532 139.688 22.7532H128.583V18.1711H139.688C143.011 18.1711 145.726 20.8473 145.726 24.1724C145.726 27.4975 143.011 30.1738 139.688 30.1738H129.353Z" fill="#ffffff"></path>
<path d="M108.387 25.5917C111.224 25.5917 113.534 23.2803 113.534 20.4418C113.534 17.6439 111.224 15.3326 108.387 15.3326H101.254C98.4176 15.3326 96.1076 17.6439 96.1076 20.4418C96.1076 23.2803 98.4176 25.5917 101.254 25.5917H108.387ZM108.387 10.7099C113.777 10.7099 118.113 15.0893 118.113 20.4418C118.113 25.835 113.777 30.1738 108.387 30.1738H101.254C95.8644 30.1738 91.5281 25.835 91.5281 20.4418C91.5281 15.0893 95.8644 10.7099 101.254 10.7099H108.387Z" fill="#ffffff"></path>
<path d="M72.7747 24.8212C72.7747 25.2267 73.1395 25.5916 73.5447 25.5916H90.6872V30.1738H73.5447C70.5863 30.1738 68.1953 27.7813 68.1953 24.8212V10.5882H72.7747V24.8212Z" fill="#ffffff"></path>
<path d="M301 10.5882C301 11.8877 299.947 12.9412 298.648 12.9412C297.35 12.9412 296.297 11.8877 296.297 10.5882C296.297 9.28874 297.35 8.23529 298.648 8.23529C299.947 8.23529 301 9.28874 301 10.5882Z" fill="#ffffff"></path>
</svg>